<svg width="24" height="24" viewBox="0 0 24 24" fill="none" xmlns="http://www.w3.org/2000/svg">
<rect width="24" height="24" rx="6.31579" fill="#0040FF" fill-opacity="0.08"/>
<rect x="0.25" y="0.25" width="23.5" height="23.5" rx="6.06579" stroke="#0040FF" stroke-opacity="0.08" stroke-width="0.5"/>
<path d="M14.5811 11.3135L15.0403 11.759L16.2924 10.5441L15.8332 10.0986L14.5811 11.3135Z" fill="#0040FF"/>
<path d="M15.0427 10.9038L14.5835 11.3494L15.8356 12.5643L16.2947 12.1187L15.0427 10.9038Z" fill="#0040FF"/>
<path d="M17.4375 7C18.353 7 19.0946 7.71962 19.0946 8.60796V11.2213H18.2643V8.60796C18.2643 8.19134 17.9378 7.85047 17.5191 7.80915H17.4339L6.65715 7.8057C6.19939 7.8057 5.8268 8.16724 5.8268 8.61141V16.2518C5.8268 16.696 6.19939 17.0575 6.65715 17.0575H17.4339C17.8917 17.0575 18.2643 16.696 18.2643 16.2518V13.6384H19.0946V16.2518C19.0946 17.1402 18.353 17.8598 17.4375 17.8598H6.65715C5.74163 17.8598 5 17.1402 5 16.2518V8.60796C5 7.71962 5.74163 7 6.65715 7H17.4339H17.4375Z" fill="#0040FF"/>
<path d="M10.1413 13.8068C9.99223 14.1615 9.61964 14.2716 9.17963 14.096C8.64381 13.8826 8.47348 13.4728 8.69349 12.946L7.60055 12.5122C7.21731 13.4212 7.56861 14.2372 8.56574 14.7365L8.28541 15.3976L8.88865 15.6386L9.16898 14.9775C10.1342 15.2633 10.9184 14.9947 11.2378 14.2338C11.6352 13.2903 10.9681 12.6602 10.2513 12.0164C9.73674 11.5653 9.62319 11.3208 9.76158 10.9868C9.91417 10.6253 10.2477 10.5014 10.6558 10.6632C11.0674 10.825 11.2342 11.2038 11.0107 11.7306L12.1036 12.1644C12.4691 11.2967 12.1746 10.5117 11.33 10.0469L11.6352 9.32379L11.0319 9.08276L10.7303 9.79894C9.78997 9.52005 8.98801 9.79206 8.66865 10.5496C8.27831 11.4792 8.95962 12.1575 9.68706 12.7704C10.159 13.1733 10.2903 13.4418 10.1377 13.8034L10.1413 13.8068Z" fill="#0040FF"/>
<path d="M15.1523 10.9802V11.7859H19.0947V10.9802H15.1523Z" fill="#0040FF"/>
<path d="M17 13.5V14.5H19.0957V13.5H17Z" fill="#0040FF"/>
</svg>
