<svg width="24" height="24" viewBox="0 0 24 24" fill="none" xmlns="http://www.w3.org/2000/svg">
<rect width="24" height="24" rx="6.86093" fill="#0040FF" fill-opacity="0.08"/>
<rect x="0.25" y="0.25" width="23.5" height="23.5" rx="6.61093" stroke="#0040FF" stroke-opacity="0.08" stroke-width="0.5"/>
<path d="M9.82812 12.4891L11.4599 13.9725L14.575 10.5607" stroke="#0040FF" stroke-width="0.903776"/>
<path d="M17.6157 11.9878C17.6157 13.6467 16.8559 15.2152 15.5542 16.2436L12.4653 18.6841L12.3364 18.769C12.068 18.915 11.7426 18.9148 11.4741 18.769L11.3442 18.6841L8.25537 16.2436C7.69163 15.7983 7.22993 15.2515 6.88721 14.6401H7.9585C8.19935 14.9726 8.48584 15.2746 8.81494 15.5347L11.9048 17.9751L14.9946 15.5347C16.0794 14.6777 16.7124 13.3702 16.7124 11.9878V10.561H17.6157V11.9878ZM11.4624 6.32079C11.737 6.16679 12.0726 6.16685 12.3472 6.32079L12.8325 6.59325C14.0208 7.26053 15.3241 7.69779 16.6743 7.88231L16.8345 7.90477C17.282 7.96593 17.6155 8.34861 17.6157 8.80028V8.92919H16.7124V8.80028L16.5522 8.77782C15.0894 8.57792 13.6765 8.10431 12.3892 7.38134L11.9048 7.10887L11.4204 7.38134C10.1332 8.10422 8.72099 8.57787 7.2583 8.77782L7.09717 8.80028V11.9878C7.09717 12.3346 7.13757 12.6769 7.21436 13.0083H6.29248C6.22858 12.6748 6.19385 12.3332 6.19385 11.9878V8.80028C6.19404 8.3767 6.48743 8.01331 6.89307 7.91942L6.9751 7.90477L7.13525 7.88231C8.31689 7.72084 9.46275 7.36589 10.5269 6.83251L10.978 6.59325L11.4624 6.32079Z" fill="#0040FF"/>
</svg>
