<svg width="24" height="24" viewBox="0 0 24 24" fill="none" xmlns="http://www.w3.org/2000/svg">
<rect width="24" height="24" rx="6.31579" fill="#0040FF" fill-opacity="0.08"/>
<rect x="0.25" y="0.25" width="23.5" height="23.5" rx="6.06579" stroke="#0040FF" stroke-opacity="0.08" stroke-width="0.5"/>
<path d="M19 11L19.1224 11.3808L19.7728 11.1718L19.2722 10.7069L19 11ZM18.1953 9.70688C18.0334 9.55656 17.7803 9.56594 17.63 9.72782C17.4796 9.8897 17.489 10.1428 17.6509 10.2931L17.9231 10L18.1953 9.70688ZM5 15.5L5.1224 15.8808L19.1224 11.3808L19 11L18.8776 10.6192L4.8776 15.1192L5 15.5ZM19 11L19.2722 10.7069L18.1953 9.70688L17.9231 10L17.6509 10.2931L18.7278 11.2931L19 11Z" fill="#0040FF"/>
<path d="M10.5 16L10 17.5H14.5L13.5 15" stroke="#0040FF" stroke-width="0.8" stroke-linecap="round"/>
<circle cx="7.25" cy="11.25" r="1.85" stroke="#0040FF" stroke-width="0.8"/>
<circle cx="14" cy="8" r="2.6" stroke="#0040FF" stroke-width="0.8"/>
</svg>
