<svg width="24" height="24" viewBox="0 0 24 24" fill="none" xmlns="http://www.w3.org/2000/svg">
<rect width="24" height="24" rx="6.86093" fill="#0040FF" fill-opacity="0.08"/>
<rect x="0.25" y="0.25" width="23.5" height="23.5" rx="6.61093" stroke="#0040FF" stroke-opacity="0.08" stroke-width="0.5"/>
<path fill-rule="evenodd" clip-rule="evenodd" d="M7.45631 7.78326H16.0138C16.689 7.78326 17.236 8.33034 17.236 9.00616V13.0813H18.0512V9.00616C18.0512 7.8804 17.1389 6.96799 16.0138 6.96799H7.45631C6.33128 6.96799 5.41898 7.8804 5.41898 9.00616V15.5265C5.41898 16.6517 6.33128 17.5641 7.45631 17.5641H13.1613V16.7488H7.45631C6.78117 16.7488 6.23355 16.2017 6.23355 15.5265V9.00616C6.23355 8.33034 6.78117 7.78326 7.45631 7.78326Z" fill="#0040FF"/>
<path d="M17.4401 16.4436H16.1161V14.9156H16.7268V15.8321H17.4401V16.4436Z" fill="#0040FF"/>
<path d="M16.4218 14.3033C15.5232 14.3033 14.792 15.0345 14.792 15.9332C14.792 16.8325 15.5232 17.5637 16.4218 17.5637C17.3204 17.5637 18.0515 16.8325 18.0515 15.9332C18.0515 15.0345 17.3204 14.3033 16.4218 14.3033ZM16.4218 18.3784C15.0733 18.3784 13.9768 17.2819 13.9768 15.9332C13.9768 14.5852 15.0733 13.488 16.4218 13.488C17.7703 13.488 18.8667 14.5852 18.8667 15.9332C18.8667 17.2819 17.7703 18.3784 16.4218 18.3784Z" fill="#0040FF"/>
<path fill-rule="evenodd" clip-rule="evenodd" d="M15.1983 9.4991H14.3831V10.3144H13.7723V11.129H14.3831V12.7596H15.1983V11.129H15.8097V10.3144H15.1983V9.4991Z" fill="#0040FF"/>
<path fill-rule="evenodd" clip-rule="evenodd" d="M9.08591 11.9442H8.27074V13.1671H7.65996V14.3894H8.27074V15.6123H9.08591V14.3894H9.69729V13.1671H9.08591V11.9442Z" fill="#0040FF"/>
<path fill-rule="evenodd" clip-rule="evenodd" d="M12.1429 8.68406H11.3277V10.7216H10.7169V12.3522H11.3277V15.2044H12.1429V12.3522H12.7543V10.7216H12.1429V8.68406Z" fill="#0040FF"/>
</svg>
