<svg width="24" height="24" viewBox="0 0 24 24" fill="none" xmlns="http://www.w3.org/2000/svg">
<rect width="24" height="24" rx="6.31579" fill="#0040FF" fill-opacity="0.08"/>
<rect x="0.25" y="0.25" width="23.5" height="23.5" rx="6.06579" stroke="#0040FF" stroke-opacity="0.08" stroke-width="0.5"/>
<path d="M9.95913 5.30408C11.3592 4.87735 12.8578 4.90029 14.2442 5.36954C15.6306 5.83879 16.8353 6.73063 17.6883 7.91997C18.5414 9.10932 19 10.5363 19 12H18.1515C18.1515 10.7137 17.7482 9.45983 16.9985 8.41464C16.2488 7.36949 15.1904 6.58564 13.972 6.17328C12.7537 5.76093 11.4368 5.74069 10.2065 6.11569C8.9761 6.4907 7.8941 7.24201 7.11288 8.26383C6.33171 9.28565 5.89058 10.5267 5.85134 11.8123C5.81209 13.098 6.1767 14.3636 6.89413 15.4312C7.61156 16.4988 8.6458 17.3144 9.851 17.7637C11.0562 18.2131 12.372 18.2734 13.6133 17.9361L13.7243 18.3458L13.8357 18.7551C12.4233 19.139 10.9258 19.0701 9.55436 18.5588C8.18298 18.0474 7.00618 17.1191 6.18982 15.9043C5.37348 14.6895 4.9586 13.2491 5.00326 11.7862C5.04796 10.3233 5.54991 8.91116 6.43881 7.74845C7.32779 6.58567 8.55905 5.73081 9.95913 5.30408Z" fill="#0040FF"/>
<path d="M9.60434 12.5383L11.4158 8.33031L11.5609 8.64275H9.30769V7.87162H12.0911L12.1795 8.3569L10.4564 12.5383H9.60434Z" fill="#0040FF"/>
<path d="M11.4615 14.3332L13.1345 11.1024H13.6154L11.9465 14.3332H11.4615Z" fill="#0040FF"/>
<path d="M17.5318 16.8787V14.0075L17.7711 14.0329L16.5696 15.5042L16.5136 15.4126H18.774V15.9878H16.1573L15.8824 15.4584L17.6489 13.3049H18.1682V16.8787H17.5318Z" fill="#0040FF"/>
<path d="M13.4779 16.8794L13.3099 16.4568L14.379 15.2656C14.4367 15.2011 14.4978 15.1298 14.5623 15.0518C14.6268 14.9703 14.6879 14.8871 14.7456 14.8023C14.8067 14.7174 14.8559 14.6343 14.8932 14.5528C14.9305 14.468 14.9492 14.3899 14.9492 14.3187C14.9492 14.2236 14.9288 14.1422 14.8881 14.0743C14.8508 14.0064 14.7965 13.9538 14.7252 13.9165C14.6539 13.8791 14.5657 13.8605 14.4605 13.8605C14.3722 13.8605 14.284 13.8876 14.1957 13.9419C14.1075 13.9928 14.026 14.0675 13.9514 14.1659C13.8801 14.261 13.8207 14.3747 13.7732 14.507L13.2794 14.2117C13.3405 14.0149 13.4321 13.8452 13.5543 13.7027C13.6765 13.5601 13.8207 13.4498 13.987 13.3717C14.1567 13.2937 14.34 13.2547 14.5368 13.2547C14.7405 13.2547 14.922 13.2971 15.0816 13.3819C15.2411 13.4668 15.3667 13.5839 15.4583 13.7332C15.5533 13.8825 15.6008 14.0573 15.6008 14.2576C15.6008 14.3526 15.5873 14.451 15.5601 14.5528C15.533 14.6547 15.4905 14.7616 15.4328 14.8736C15.3751 14.9856 15.3005 15.1044 15.2088 15.2299C15.1172 15.3521 15.0052 15.4845 14.8728 15.627L14.0736 16.4976L13.9666 16.2685H15.7281V16.8794H13.4779Z" fill="#0040FF"/>
</svg>
