<svg width="24" height="24" viewBox="0 0 24 24" fill="none" xmlns="http://www.w3.org/2000/svg">
<rect width="24" height="24" rx="6.86093" fill="#0040FF" fill-opacity="0.08"/>
<rect x="0.25" y="0.25" width="23.5" height="23.5" rx="6.61093" stroke="#0040FF" stroke-opacity="0.08" stroke-width="0.5"/>
<g clip-path="url(#clip0_2313_1450)">
<path d="M12.9585 18.5875H8.86979C8.65488 18.5875 8.48295 18.4282 8.48295 18.229V11.7247H7.35467C7.21498 11.7247 7.09141 11.655 7.02156 11.5454C6.95172 11.4358 6.95172 11.2964 7.02156 11.1868L10.5085 5.58398C10.6482 5.36484 11.0404 5.36484 11.1747 5.58398L14.667 11.1868C14.7369 11.2964 14.7369 11.4358 14.667 11.5454C14.5972 11.655 14.4682 11.7247 14.3339 11.7247H12.9585C12.7436 11.7247 12.5716 11.5653 12.5716 11.3661C12.5716 11.1669 12.7436 11.0075 12.9585 11.0075H13.6677L10.847 6.48043L8.0209 11.0125H8.86979C9.0847 11.0125 9.25663 11.1719 9.25663 11.3711V17.8754H12.9585C13.1734 17.8754 13.3453 18.0347 13.3453 18.2339C13.3453 18.4332 13.1734 18.5925 12.9585 18.5925V18.5875Z" fill="#0040FF"/>
<path d="M12.6572 17.6121C12.5627 17.6121 12.4682 17.5625 12.4052 17.4634C12.2927 17.2925 12.3197 17.0446 12.4592 16.9068L17.1755 12.3331C17.315 12.1953 17.5175 12.2284 17.63 12.3992C17.7425 12.57 17.7155 12.818 17.576 12.9558L12.8597 17.5295C12.8012 17.5846 12.7292 17.6121 12.6572 17.6121Z" fill="#0040FF"/>
<path d="M13.5545 14.6859C12.8795 14.6859 12.3352 14.1365 12.3352 13.4667C12.3352 12.7969 12.8847 12.2474 13.5545 12.2474C14.2243 12.2474 14.7737 12.7969 14.7737 13.4667C14.7737 14.1365 14.2243 14.6859 13.5545 14.6859ZM13.5545 12.9957C13.2928 12.9957 13.0835 13.205 13.0835 13.4667C13.0835 13.7283 13.2928 13.9376 13.5545 13.9376C13.8161 13.9376 14.0254 13.7283 14.0254 13.4667C14.0254 13.205 13.8161 12.9957 13.5545 12.9957Z" fill="#0040FF"/>
<path d="M16.4807 17.6121C15.8057 17.6121 15.2614 17.0627 15.2614 16.3929C15.2614 15.7231 15.8109 15.1736 16.4807 15.1736C17.1505 15.1736 17.6999 15.7231 17.6999 16.3929C17.6999 17.0627 17.1505 17.6121 16.4807 17.6121ZM16.4807 15.9219C16.2191 15.9219 16.0097 16.1313 16.0097 16.3929C16.0097 16.6545 16.2191 16.8638 16.4807 16.8638C16.7423 16.8638 16.9517 16.6545 16.9517 16.3929C16.9517 16.1313 16.7423 15.9219 16.4807 15.9219Z" fill="#0040FF"/>
</g>
<defs>
<clipPath id="clip0_2313_1450">
<rect width="10.7294" height="13.1679" fill="white" transform="translate(6.96762 5.41963)"/>
</clipPath>
</defs>
</svg>
