<svg width="24" height="24" viewBox="0 0 24 24" fill="none" xmlns="http://www.w3.org/2000/svg">
<rect width="24" height="24" rx="6.31579" fill="#0040FF" fill-opacity="0.08"/>
<rect x="0.25" y="0.25" width="23.5" height="23.5" rx="6.06579" stroke="#0040FF" stroke-opacity="0.08" stroke-width="0.5"/>
<path d="M7.68945 8.121C8.61898 8.121 9.38086 8.89337 9.38086 9.83585C9.38086 10.0071 9.3802 10.0932 9.29492 10.2646L12 11.8075L14.7041 10.2646C14.6195 10.0931 14.6191 10.0065 14.6191 9.83585C14.6194 8.89281 15.381 8.12198 16.3096 8.12198C17.2396 8.12211 17.9998 8.89289 18 9.83585C18 10.7782 17.2399 11.5504 16.3105 11.5507C15.8039 11.5507 15.3807 11.2928 15.127 11.036L12.4229 12.4931V15.4931C13.1832 15.6645 13.6904 16.3509 13.6904 17.122C13.6902 18.0651 12.9294 18.8358 12 18.8358C11.0698 18.8358 10.3107 18.0651 10.3105 17.122C10.3105 16.3502 10.8168 15.6637 11.5771 15.4931V12.4931L8.95801 10.9501C8.61972 11.293 8.19612 11.5497 7.68945 11.5497C6.76024 11.5495 6.00017 10.7788 6 9.83585C6 8.89352 6.76013 8.12125 7.68945 8.121ZM12 16.2646C11.4926 16.2646 11.1543 16.6077 11.1543 17.122C11.1545 17.6361 11.4927 17.9784 12 17.9784C12.2255 17.9762 12.4413 17.8851 12.5996 17.7245C12.7578 17.564 12.8457 17.3473 12.8447 17.122H12.8457C12.8457 16.6077 12.5074 16.2646 12 16.2646ZM6.50781 12.1503C6.76067 12.3216 7.01439 12.4071 7.35254 12.4071H7.35156V14.9794L9.63379 16.3505C9.54998 16.6073 9.46387 16.8645 9.46387 17.122V17.2069L6.93066 15.6649C6.67697 15.4935 6.50784 15.2361 6.50781 14.9794V12.1503ZM17.4932 14.8935C17.4931 15.1502 17.323 15.4076 17.0693 15.579L14.5352 17.122V17.036C14.5352 16.7793 14.45 16.5221 14.3662 16.2646L16.6475 14.9784V12.4071C16.9019 12.3218 17.2395 12.2356 17.4932 12.1503V14.8935ZM7.69043 8.9794C7.18328 8.97951 6.84492 9.32113 6.84473 9.83585C6.84473 10.35 7.18304 10.6931 7.68945 10.6933C8.19612 10.6933 8.53516 10.3501 8.53516 9.83585C8.53496 9.32181 8.19619 8.9794 7.69043 8.9794ZM16.3105 8.9794C15.804 8.9794 15.465 9.32105 15.4648 9.83585C15.4648 10.3494 15.8037 10.6923 16.3096 10.6923V10.6933C16.5351 10.6912 16.7507 10.5999 16.9092 10.4394C17.0676 10.2787 17.1563 10.0615 17.1553 9.83585C17.1551 9.32196 16.8176 8.97961 16.3105 8.9794ZM11.5762 6.06436C11.8515 5.97854 12.1465 5.97855 12.4219 6.06436L15.043 7.60733C14.7893 7.77875 14.5351 7.95042 14.3652 8.20792L12 6.83585L9.54785 8.29288V8.29386C9.37947 8.03709 9.12557 7.77958 8.87109 7.69425L11.5762 6.06436Z" fill="#0040FF"/>
</svg>
