<svg width="24" height="24" viewBox="0 0 24 24" fill="none" xmlns="http://www.w3.org/2000/svg">
<rect width="24" height="24" rx="6.31579" fill="#0040FF" fill-opacity="0.08"/>
<rect x="0.25" y="0.25" width="23.5" height="23.5" rx="6.06579" stroke="#0040FF" stroke-opacity="0.08" stroke-width="0.5"/>
<mask id="path-3-inside-1_2313_1482" fill="white">
<path fill-rule="evenodd" clip-rule="evenodd" d="M12.9542 12.6509C13.1289 12.7263 13.2122 12.9327 13.1368 13.1074L12.1127 15.4971C12.0372 15.6717 11.8308 15.7551 11.6562 15.6797C11.4815 15.6043 11.3981 15.4018 11.4736 15.2232L12.4977 12.8335C12.5731 12.6588 12.7756 12.5755 12.9542 12.6509Z"/>
</mask>
<path fill-rule="evenodd" clip-rule="evenodd" d="M12.9542 12.6509C13.1289 12.7263 13.2122 12.9327 13.1368 13.1074L12.1127 15.4971C12.0372 15.6717 11.8308 15.7551 11.6562 15.6797C11.4815 15.6043 11.3981 15.4018 11.4736 15.2232L12.4977 12.8335C12.5731 12.6588 12.7756 12.5755 12.9542 12.6509Z" fill="#0A0D14"/>
<path d="M12.9542 12.6509L13.2516 11.9623L13.2459 11.96L12.9542 12.6509ZM13.1368 13.1074L12.4483 12.8101L12.4475 12.812L13.1368 13.1074ZM12.1127 15.4971L12.8012 15.7944L12.802 15.7925L12.1127 15.4971ZM11.4736 15.2232L10.7842 14.9277L10.7826 14.9315L11.4736 15.2232ZM12.4977 12.8335L11.8092 12.5362L11.8084 12.5381L12.4977 12.8335ZM12.9542 12.6509L12.6569 13.3394C12.4562 13.2528 12.3574 13.0206 12.4483 12.8101L13.1368 13.1074L13.8254 13.4047C14.0671 12.8449 13.8016 12.1999 13.2515 11.9623L12.9542 12.6509ZM13.1368 13.1074L12.4475 12.812L11.4233 15.2016L12.1127 15.4971L12.802 15.7925L13.8262 13.4028L13.1368 13.1074ZM12.1127 15.4971L11.4241 15.1998C11.5108 14.999 11.743 14.9002 11.9535 14.9911L11.6562 15.6797L11.3588 16.3682C11.9187 16.61 12.5637 16.3444 12.8012 15.7944L12.1127 15.4971ZM11.6562 15.6797L11.9535 14.9911C12.1546 15.078 12.2503 15.3118 12.1645 15.5149L11.4736 15.2232L10.7826 14.9315C10.546 15.4918 10.8084 16.1305 11.3588 16.3682L11.6562 15.6797ZM11.4736 15.2232L12.1629 15.5186L13.1871 13.1289L12.4977 12.8335L11.8084 12.5381L10.7842 14.9277L11.4736 15.2232ZM12.4977 12.8335L13.1863 13.1308C13.0994 13.3319 12.8656 13.4276 12.6625 13.3418L12.9542 12.6509L13.2459 11.96C12.6856 11.7234 12.0469 11.9857 11.8092 12.5362L12.4977 12.8335Z" fill="#0040FF" mask="url(#path-3-inside-1_2313_1482)"/>
<path d="M10.0285 15.5245L8.6709 14.1669L10.0285 12.8093" stroke="#0040FF" stroke-width="0.75" stroke-miterlimit="10"/>
<path d="M14.6256 12.8093L15.9832 14.1669L14.6256 15.5245" stroke="#0040FF" stroke-width="0.75" stroke-miterlimit="10"/>
<path d="M19 16.75C19 17.2677 18.6067 17.6938 18.1025 17.7451L18 17.75H6C5.48232 17.75 5.05621 17.3567 5.00488 16.8525L5 16.75V15.0732H5.75V16.75C5.75 16.8881 5.86193 17 6 17H18C18.1381 17 18.25 16.8881 18.25 16.75V11.3027H19V16.75ZM18.1025 7.25488C18.6067 7.30621 19 7.73232 19 8.25V9.8291H18.25V8.25C18.25 8.11193 18.1381 8 18 8H6C5.86193 8 5.75 8.11193 5.75 8.25V13.8818H5V8.25C5 7.69772 5.44772 7.25 6 7.25H18L18.1025 7.25488Z" fill="#0040FF"/>
<path d="M5 10.5586H16.6667" stroke="#0040FF" stroke-width="0.75"/>
</svg>
