<svg width="24" height="24" viewBox="0 0 24 24" fill="none" xmlns="http://www.w3.org/2000/svg">
<rect width="24" height="24" rx="6.31579" fill="#0040FF" fill-opacity="0.08"/>
<rect x="0.25" y="0.25" width="23.5" height="23.5" rx="6.06579" stroke="#0040FF" stroke-opacity="0.08" stroke-width="0.5"/>
<path d="M7.33334 15.5L7.33468 13.1791C7.33494 13.0181 7.4655 12.8876 7.62652 12.8874C8.59891 12.8874 9.57132 12.8874 10.5437 12.8874C10.8125 12.8874 10.8111 12.649 10.8111 12.0814C10.8111 11.5139 9.38145 11.0358 9.38145 9.0404C9.38145 7.04503 10.8625 6.45834 12.0933 6.45834C13.3242 6.45834 14.6648 7.04503 14.6648 9.0404C14.6648 11.0358 13.2427 11.353 13.2427 12.0814C13.2427 12.8098 13.2427 12.8874 13.4704 12.8874C14.4386 12.8874 15.4068 12.8874 16.3751 12.8874C16.5361 12.8874 16.6668 13.018 16.6668 13.1791V15.5H7.33334Z" stroke="#0040FF" stroke-width="0.75"/>
<path d="M7.33334 17.25H16.6667" stroke="#0040FF" stroke-width="0.75" stroke-linecap="round"/>
</svg>
