<svg width="24" height="24" viewBox="0 0 24 24" fill="none" xmlns="http://www.w3.org/2000/svg">
<rect width="24" height="24" rx="6.31579" fill="#0040FF" fill-opacity="0.08"/>
<rect x="0.25" y="0.25" width="23.5" height="23.5" rx="6.06579" stroke="#0040FF" stroke-opacity="0.08" stroke-width="0.5"/>
<path d="M12.8263 7.38501C15.8784 7.38501 18.3526 9.8592 18.3526 12.9113L16.8897 11.936" stroke="#0040FF" stroke-width="0.82989" stroke-linecap="round" stroke-linejoin="round"/>
<circle cx="10.7136" cy="10.1486" r="4.71357" fill="#E6EBFA"/>
<circle cx="10.7134" cy="10.1489" r="3.73835" stroke="#0040FF" stroke-width="0.82989" stroke-linejoin="round"/>
<path d="M11.1288 10.8511C11.1288 11.09 10.9429 11.237 10.6485 11.237C10.292 11.237 10.0958 11.0395 10.0958 10.6857H9.36746C9.36746 11.2968 9.76519 11.6873 10.4522 11.747V12.1926H10.8551V11.747C11.4749 11.6919 11.8571 11.3565 11.8571 10.8465C11.8571 10.2125 11.3251 10.0012 10.7621 9.79446C10.3592 9.65204 10.2352 9.53718 10.2352 9.31207C10.2352 9.06858 10.3954 8.92156 10.6691 8.92156C10.9429 8.92156 11.1288 9.10073 11.1288 9.45449H11.8571C11.8571 8.87103 11.5007 8.48511 10.9067 8.41161V7.92462H10.5038V8.40701C9.89949 8.46214 9.50692 8.80211 9.50692 9.31207C9.50692 9.93688 10.0596 10.1712 10.6226 10.3595C10.9894 10.4836 11.1288 10.6076 11.1288 10.8511Z" fill="#0040FF" stroke="#0040FF" stroke-width="0.0812685"/>
<path d="M13.4583 17.894C10.521 18.7231 7.46779 17.014 6.63872 14.0767L8.31146 14.6179" stroke="#0040FF" stroke-width="0.82989" stroke-linecap="round" stroke-linejoin="round"/>
<circle cx="16.1833" cy="16.0098" r="1.56665" stroke="#0040FF" stroke-width="0.82989" stroke-linejoin="round"/>
</svg>
