<svg width="24" height="24" viewBox="0 0 24 24" fill="none" xmlns="http://www.w3.org/2000/svg">
<rect width="24" height="24" rx="6.86093" fill="#0040FF" fill-opacity="0.08"/>
<rect x="0.25" y="0.25" width="23.5" height="23.5" rx="6.61093" stroke="#0040FF" stroke-opacity="0.08" stroke-width="0.5"/>
<path fill-rule="evenodd" clip-rule="evenodd" d="M11.8208 10.1641H11.8191H11.8144H11.8005C11.7877 10.1641 11.7709 10.1635 11.7482 10.1629C11.7041 10.1623 11.6408 10.16 11.5613 10.1565C11.4028 10.1484 11.1793 10.1333 10.9175 10.1031C10.4774 10.052 9.91426 9.95625 9.3604 9.77454C8.19929 11.2143 7.36967 13.0436 6.81117 14.6186C6.3235 15.995 7.3865 17.3785 8.93834 17.3785H14.6853C16.2406 17.3785 17.3065 15.9881 16.8159 14.6081C16.2545 13.0302 15.4261 11.2021 14.2766 9.77454C13.7239 9.95625 13.1619 10.052 12.7224 10.1031C12.4612 10.1333 12.2382 10.1484 12.0803 10.1565C12.0008 10.16 11.9375 10.1623 11.8934 10.1629C11.8713 10.1635 11.8539 10.1641 11.8417 10.1641H11.8272H11.8231H11.8208ZM14.258 8.86193C14.4293 8.79459 14.6243 8.84335 14.7445 8.98326C16.0943 10.5583 17.0261 12.6151 17.6316 14.3178C18.3521 16.3457 16.7468 18.244 14.6853 18.244H8.93834C6.88258 18.244 5.27734 16.3544 5.99549 14.3295C6.59811 12.6285 7.53048 10.5716 8.89305 8.98326C9.01265 8.84335 9.20772 8.79517 9.37898 8.86193C9.92587 9.07615 10.5349 9.18703 11.0179 9.24276C11.2571 9.27063 11.4603 9.28456 11.6031 9.29153C11.6745 9.29501 11.7302 9.29675 11.768 9.29734C11.7866 9.29792 11.8005 9.29792 11.8098 9.2985H11.8191H11.8208H11.8226H11.8324C11.8411 9.29792 11.8556 9.29792 11.8742 9.29734C11.9114 9.29675 11.9671 9.29501 12.0385 9.29153C12.1808 9.28456 12.384 9.27063 12.6226 9.24276C13.1044 9.18703 13.7117 9.07615 14.258 8.86193Z" fill="#0040FF"/>
<path d="M12.4124 14.5796C12.4123 14.8291 12.2183 14.9819 11.9114 14.9822C11.5395 14.9824 11.3346 14.7762 11.3346 14.4069L10.5751 14.4069C10.5751 15.0444 10.99 15.4518 11.7064 15.5141L11.7067 15.9792L12.127 15.9792L12.1267 15.5141C12.7732 15.4566 13.1721 15.107 13.1719 14.5749C13.1722 13.9137 12.6172 13.6932 12.0299 13.4772C11.6098 13.3289 11.4801 13.2087 11.4801 12.9741C11.4802 12.72 11.6471 12.5667 11.9326 12.5667C12.2182 12.5667 12.4126 12.7535 12.4126 13.1228L13.1721 13.1228C13.172 12.5141 12.8001 12.1115 12.1806 12.0347L12.1808 11.5265L11.7605 11.5265L11.7602 12.0301C11.1298 12.0877 10.7204 12.4421 10.7206 12.9742C10.7207 13.6257 11.2969 13.8702 11.8843 14.0667C12.2669 14.1964 12.4125 14.3255 12.4124 14.5796Z" fill="#0040FF"/>
<path fill-rule="evenodd" clip-rule="evenodd" d="M9.34766 7.16823C8.70092 7.46663 8.50062 7.79231 8.50062 7.99956C8.50062 8.20681 8.70092 8.5325 9.34766 8.8309C9.95782 9.11246 10.831 9.29823 11.8191 9.29823C12.8066 9.29823 13.6804 9.11246 14.2905 8.8309C14.9373 8.5325 15.1376 8.20681 15.1376 7.99956C15.1376 7.79231 14.9373 7.46663 14.2905 7.16823C13.6804 6.88667 12.8066 6.70089 11.8191 6.70089C10.831 6.70089 9.95782 6.88667 9.34766 7.16823ZM8.98481 6.38218C9.73257 6.03734 10.7352 5.83531 11.8191 5.83531C12.903 5.83531 13.9056 6.03734 14.6528 6.38218C15.364 6.71018 16.0032 7.25066 16.0032 7.99956C16.0032 8.74846 15.364 9.28894 14.6528 9.61695C13.9056 9.96179 12.903 10.1638 11.8191 10.1638C10.7352 10.1638 9.73257 9.96179 8.98481 9.61695C8.27421 9.28894 7.63443 8.74846 7.63443 7.99956C7.63443 7.25066 8.27421 6.71018 8.98481 6.38218Z" fill="#0040FF"/>
</svg>
